<?xml version="1.0" standalone="no"?>
<!DOCTYPE svg PUBLIC "-//W3C//DTD SVG 20010904//EN"
 "http://www.w3.org/TR/2001/REC-SVG-20010904/DTD/svg10.dtd">
<svg version="1.0" xmlns="http://www.w3.org/2000/svg"
 width="315.000000pt" height="315.000000pt" viewBox="0 0 315.000000 315.000000"
 preserveAspectRatio="xMidYMid meet">
<metadata>
Created by potrace 1.14, written by Peter Selinger 2001-2017
</metadata>
<g transform="translate(0.000000,315.000000) scale(0.100000,-0.100000)"
fill="#000000" stroke="none">
<path d="M2216 2878 c-21 -4 -51 -17 -66 -28 -60 -43 -91 -155 -63 -234 7 -21
13 -40 13 -43 0 -2 -33 -3 -73 -2 l-73 2 -1 52 c-1 142 -137 254 -263 216 -76
-23 -130 -93 -130 -170 0 -107 156 -163 189 -68 16 44 -7 77 -54 77 -40 0 -45
15 -19 60 36 60 107 76 164 38 62 -43 86 -100 73 -172 -6 -30 -25 -40 -90 -49
-145 -21 -285 -83 -365 -162 -66 -65 -106 -145 -154 -300 -69 -228 -98 -290
-160 -345 -45 -39 -56 -38 -39 3 40 96 60 255 44 344 -31 165 -191 316 -350
330 -87 8 -143 -11 -205 -71 -52 -50 -97 -130 -108 -190 -3 -16 -6 -30 -8 -31
-2 -1 -32 -5 -68 -8 -166 -14 -324 -124 -365 -253 -48 -152 43 -339 210 -431
41 -23 62 -28 121 -28 67 0 74 2 130 41 32 23 79 52 104 64 l45 23 -37 -41
c-40 -44 -68 -94 -87 -154 -11 -33 -17 -38 -44 -39 -133 -3 -144 -11 -85 -65
24 -21 53 -46 65 -54 19 -13 22 -25 24 -95 2 -44 7 -95 12 -114 5 -18 10 -41
12 -51 6 -30 72 -167 84 -174 6 -4 11 -24 11 -44 0 -39 27 -93 63 -124 42 -36
121 -77 161 -83 23 -4 66 -20 98 -36 278 -145 649 -190 988 -120 l94 19 42
-29 c111 -81 287 -82 390 -4 41 31 48 61 22 87 -17 17 -29 19 -72 14 -28 -3
-69 -10 -91 -15 -56 -14 -131 -20 -144 -11 -7 4 15 18 52 34 84 36 226 129
306 200 41 37 69 55 79 51 8 -3 39 -8 68 -11 127 -14 284 85 284 179 0 24 -16
37 -44 37 -7 0 -51 -25 -97 -55 -76 -50 -145 -83 -154 -73 -2 1 20 35 49 74
62 85 119 191 150 280 22 62 26 67 88 104 119 71 185 171 193 291 7 109 -28
194 -78 187 -29 -4 -56 -61 -57 -118 -1 -116 -43 -255 -87 -291 -15 -13 -16
-11 -9 16 17 63 14 297 -4 400 -76 419 -303 713 -632 816 -103 32 -104 33
-138 93 -44 80 -26 156 49 200 39 23 73 15 113 -25 33 -33 33 -52 -2 -54 -29
-2 -50 -30 -42 -58 17 -67 115 -61 151 10 18 35 13 76 -14 115 -39 58 -98 81
-169 66z m-1391 -522 c45 -1 69 -12 62 -30 -3 -7 1 -13 9 -13 7 0 11 5 7 10
-3 5 3 4 14 -2 14 -7 19 -19 18 -40 -1 -17 2 -28 7 -25 4 3 8 0 8 -7 0 -7 3
-10 6 -7 3 4 1 17 -6 30 -11 22 -11 22 5 3 9 -11 15 -32 13 -46 -3 -19 0 -26
11 -25 12 1 16 -9 16 -40 0 -35 3 -41 18 -39 9 2 17 -1 17 -6 0 -6 6 -7 13 -3
6 4 9 4 5 -1 -4 -4 -3 -14 3 -22 9 -10 8 -13 -1 -13 -10 0 -10 -3 -1 -14 16
-19 25 -70 11 -61 -6 3 -7 0 -4 -9 3 -9 10 -13 15 -10 5 3 6 -3 2 -12 -4 -10
-2 -15 4 -11 5 3 10 0 10 -8 0 -18 -9 -19 -24 -4 -8 8 -13 7 -18 -2 -5 -7 -4
-10 2 -6 5 3 16 -2 24 -11 21 -25 31 -52 17 -49 -6 1 -13 -4 -16 -12 -2 -8 0
-11 5 -8 13 8 13 -25 -1 -42 -8 -11 -8 -13 1 -8 13 8 12 -18 -2 -30 -4 -4 -5
-2 0 6 5 9 4 12 -3 7 -6 -4 -8 -14 -5 -22 3 -9 2 -19 -3 -23 -5 -3 -14 -15
-20 -25 -5 -11 -18 -20 -27 -22 -9 -1 -15 2 -12 6 3 5 1 11 -5 15 -5 3 -10 11
-10 16 0 6 5 7 12 3 7 -4 8 -3 4 5 -4 6 -12 9 -17 6 -5 -4 -9 -4 -9 -1 0 2 -3
12 -7 22 -5 13 -3 15 7 9 9 -5 11 -4 6 3 -4 7 -13 12 -21 12 -7 0 -16 7 -19
16 -5 12 -3 14 7 8 7 -5 4 -1 -6 9 -11 9 -16 18 -13 18 3 1 10 2 15 3 5 0 13
5 18 10 4 5 4 7 -2 4 -5 -3 -16 0 -23 8 -10 10 -10 14 -1 14 7 0 10 2 7 5 -3
3 -13 3 -22 -1 -15 -6 -15 -7 1 -20 16 -12 16 -13 2 -14 -19 0 -33 26 -19 35
11 7 5 42 -12 63 -11 14 -10 15 7 9 18 -6 19 -6 3 6 -13 11 -15 16 -6 25 7 7
8 12 2 12 -15 0 -35 -38 -24 -45 6 -4 7 -11 4 -17 -5 -7 -2 -8 7 -3 11 6 12 5
2 -5 -10 -11 -9 -16 5 -26 16 -12 15 -13 -5 -11 -12 0 -20 4 -17 8 2 4 -3 12
-11 19 -12 10 -13 16 -4 26 9 11 6 16 -12 23 -13 5 -27 7 -31 4 -5 -2 -8 1 -8
7 0 7 9 9 23 5 17 -5 19 -4 7 4 -8 6 -16 15 -16 21 -3 23 -6 24 -15 5 -9 -19
-9 -18 -5 3 2 12 0 22 -5 22 -9 0 -13 -15 -10 -33 1 -5 -3 -6 -9 -2 -12 7 3
40 22 49 10 5 10 7 0 12 -10 5 -10 9 0 22 12 14 11 14 -9 2 -12 -8 -20 -18
-17 -22 3 -4 1 -15 -4 -24 -8 -15 -10 -15 -15 0 -4 10 -3 15 3 11 6 -3 10 -1
10 4 0 12 -26 15 -33 4 -2 -5 -2 -2 -1 4 2 7 -5 17 -14 23 -17 11 -6 10 28 -4
11 -5 16 0 16 16 0 13 -5 26 -10 30 -7 5 -5 8 5 8 22 0 31 -24 16 -40 -8 -8
-5 -8 11 1 12 8 22 17 22 22 0 4 -4 5 -10 2 -9 -5 -14 7 -12 26 1 4 -8 5 -18
2 -11 -3 -20 -1 -20 4 0 5 -18 24 -39 41 -30 24 -40 28 -45 17 -3 -9 0 -12 10
-8 7 3 14 0 14 -7 0 -6 -4 -9 -8 -6 -5 3 -9 -1 -9 -9 0 -14 11 -19 30 -16 5 1
5 -4 2 -10 -6 -8 -2 -8 13 0 15 8 21 7 26 -4 3 -8 1 -17 -4 -20 -6 -4 -10 -1
-10 4 0 6 -4 11 -8 11 -5 0 -9 -6 -9 -14 0 -8 8 -13 18 -11 10 2 22 -1 25 -7
5 -7 0 -9 -13 -6 -11 3 -28 1 -37 -4 -16 -9 -16 -7 -7 10 6 12 7 23 2 26 -5 3
-11 -3 -14 -14 -3 -11 -11 -20 -19 -20 -11 0 -11 2 1 9 8 5 11 16 6 30 -4 13
-11 18 -18 14 -7 -4 -21 -9 -32 -10 l-20 -3 20 12 c11 7 23 13 28 14 4 1 10 2
15 3 11 2 -21 21 -36 21 -7 0 -11 -4 -7 -9 3 -5 1 -12 -4 -15 -5 -4 -8 2 -7
11 2 10 13 19 25 21 12 2 19 8 15 13 -3 5 -10 6 -16 3 -7 -4 -8 -2 -4 4 4 6
13 9 21 6 8 -4 18 1 21 10 3 9 10 16 15 16 4 0 6 -6 3 -13 -6 -18 22 -42 31
-27 4 6 1 9 -7 8 -9 -2 -12 7 -11 30 2 30 0 32 -15 20 -12 -9 -11 -6 3 12 11
14 20 26 21 28 1 2 4 -4 8 -13 4 -11 2 -14 -7 -9 -6 4 -8 3 -4 -1 4 -5 14 -10
23 -11 12 -2 13 1 4 11 -16 19 -4 34 21 28 19 -5 20 -4 9 17 -10 18 -10 21 1
14 7 -4 31 -8 54 -8z m-158 -85 c0 -11 -5 -18 -9 -15 -4 3 -5 11 -1 19 7 21
12 19 10 -4z m343 -47 c0 -2 -7 -4 -15 -4 -8 0 -15 4 -15 10 0 5 7 7 15 4 8
-4 15 -8 15 -10z m-290 -34 c12 -7 10 -9 -8 -7 -12 0 -22 5 -22 9 0 11 12 10
30 -2z m306 -26 c-3 -7 3 -18 12 -23 15 -9 14 -10 -5 -8 -13 1 -23 6 -24 12 0
5 -2 18 -4 27 -2 11 2 15 12 11 8 -3 12 -12 9 -19z m-356 -14 c0 -5 -5 -10
-11 -10 -5 0 -7 5 -4 10 3 6 8 10 11 10 2 0 4 -4 4 -10z m-37 -21 c-8 -8 -13
-7 -18 2 -5 8 -4 10 3 5 7 -4 12 -2 12 5 0 7 3 9 7 6 4 -4 2 -12 -4 -18z m77
-45 c0 -2 -9 0 -20 6 -11 6 -20 13 -20 16 0 2 9 0 20 -6 11 -6 20 -13 20 -16z
m-331 -60 c-15 -18 -25 -18 -33 2 -5 14 -4 15 9 4 14 -12 19 -7 16 13 -1 5 3
6 9 2 8 -5 7 -11 -1 -21z m53 -6 c-1 -8 4 -15 12 -15 8 0 13 8 11 19 -2 10 0
16 6 13 5 -4 7 -11 4 -16 -4 -5 -2 -9 3 -9 6 0 20 -19 31 -41 30 -57 39 -64
127 -105 42 -20 95 -53 117 -74 39 -38 56 -70 35 -70 -6 0 -7 8 -4 18 5 14 3
13 -10 -3 -15 -19 -15 -19 -10 8 6 33 -1 35 -14 5 -7 -18 -9 -19 -9 -5 -1 17
-16 23 -24 10 -2 -5 -3 -3 -1 2 1 6 -4 19 -12 29 -7 11 -11 23 -8 27 3 5 0 9
-6 9 -7 0 -9 -7 -6 -15 21 -52 21 -51 3 -36 -13 11 -20 11 -32 1 -18 -15 -36
-5 -28 16 4 11 9 12 19 3 8 -6 14 -10 15 -8 8 38 7 40 -7 28 -11 -9 -14 -9
-14 1 0 7 -9 2 -19 -11 -15 -19 -17 -27 -8 -38 8 -9 2 -8 -15 3 -16 10 -28 23
-29 30 0 6 -4 2 -9 -9 -8 -18 -9 -18 -9 -2 -1 10 -5 16 -11 12 -5 -3 -7 -13
-4 -23 4 -11 -2 -8 -15 8 -11 14 -21 21 -21 17 0 -10 -60 25 -60 35 0 4 -5 8
-11 8 -6 0 -7 -5 -2 -12 10 -18 12 -58 1 -52 -4 3 -8 -1 -8 -8 0 -10 -3 -9 -9
2 -11 16 -4 33 10 25 5 -4 6 2 2 11 -4 11 -8 13 -11 6 -2 -7 -8 -12 -13 -12
-6 0 -7 6 -3 13 5 8 2 8 -9 -2 -17 -13 -24 -4 -9 15 4 5 0 2 -9 -8 -9 -9 -20
-14 -23 -10 -4 3 -4 -2 0 -13 7 -18 6 -19 -10 -6 -15 13 -19 13 -27 0 -5 -8
-9 -10 -9 -5 0 5 -9 1 -20 -9 -21 -19 -28 -7 -8 13 25 25 1 16 -27 -10 -27
-25 -27 -27 -7 -23 13 2 22 -1 22 -8 0 -7 4 -6 10 3 5 8 10 11 10 6 0 -5 6 -3
13 3 8 6 18 7 22 3 5 -4 5 -1 0 7 -6 10 -4 12 5 6 9 -6 11 -4 5 5 -6 9 -4 11
4 5 9 -5 10 -10 2 -18 -9 -9 -5 -16 11 -30 l23 -18 -22 11 c-16 7 -23 7 -23 0
0 -5 -5 -10 -11 -10 -8 0 -8 4 0 14 8 10 9 16 1 21 -5 3 -10 3 -10 -2 0 -4
-11 -13 -25 -20 -14 -6 -23 -8 -20 -3 3 4 -2 10 -10 14 -8 3 -17 1 -20 -4 -4
-6 -1 -10 4 -10 6 0 11 -5 11 -11 0 -6 -12 -2 -27 9 -16 10 -34 17 -40 15 -7
-3 -13 0 -13 6 0 6 3 10 7 10 21 -3 34 2 28 11 -4 6 -11 8 -16 5 -5 -3 -6 1
-3 9 3 9 2 16 -4 16 -5 0 -10 15 -10 33 0 17 -2 44 -5 58 -2 15 1 26 7 26 7 0
11 -20 10 -53 0 -29 2 -51 6 -49 4 3 6 17 4 32 -1 15 3 34 9 42 9 12 9 13 0 7
-17 -9 -17 6 0 23 9 11 9 13 0 7 -7 -4 -13 -2 -13 4 0 6 -5 8 -12 4 -6 -4 -8
-3 -4 4 3 6 16 9 28 7 31 -6 40 3 26 28 -11 21 -10 21 7 7 17 -14 18 -13 12
10 l-6 25 20 -24 c10 -13 19 -18 19 -12 0 7 4 10 9 7 5 -3 15 2 22 11 8 9 9
14 3 10 -6 -3 -11 0 -11 8 0 10 5 11 18 4 24 -12 31 -11 24 4 -4 6 0 4 9 -6
16 -21 46 -17 67 9 15 18 35 13 31 -8z m-158 -16 c3 -5 -1 -9 -9 -9 -8 0 -15
4 -15 9 0 4 4 8 9 8 6 0 12 -4 15 -8z m-69 -42 c3 -5 1 -10 -4 -10 -6 0 -11 5
-11 10 0 6 2 10 4 10 3 0 8 -4 11 -10z m245 -166 c0 -8 4 -13 9 -9 5 3 12 1
15 -4 4 -5 -1 -8 -10 -7 -19 3 -41 36 -24 36 5 0 10 -7 10 -16z m-94 -11 c-5
-15 -4 -15 9 1 8 11 15 16 15 10 0 -15 -14 -30 -32 -37 -15 -5 -16 -3 -6 18
13 29 23 34 14 8z m31 -35 c-3 -8 -6 -5 -6 6 -1 11 2 17 5 13 3 -3 4 -12 1
-19z m44 -1 c-6 -8 -7 -18 -3 -22 4 -5 2 -5 -5 -1 -14 8 -6 36 9 36 7 0 6 -5
-1 -13z m39 3 c0 -5 -2 -10 -4 -10 -3 0 -8 5 -11 10 -3 6 -1 10 4 10 6 0 11
-4 11 -10z m40 4 c0 -8 -19 -13 -24 -6 -3 5 1 9 9 9 8 0 15 -2 15 -3z m-126
-33 c-2 -3 -12 3 -22 13 -16 17 -16 18 5 5 12 -7 20 -15 17 -18z m237 -4 c-10
-9 -11 -8 -5 6 3 10 9 15 12 12 3 -3 0 -11 -7 -18z m69 13 c0 -5 -2 -10 -4
-10 -3 0 -8 5 -11 10 -3 6 -1 10 4 10 6 0 11 -4 11 -10z m-500 -20 c0 -5 -2
-10 -4 -10 -3 0 -8 5 -11 10 -3 6 -1 10 4 10 6 0 11 -4 11 -10z m95 0 c4 -6
-1 -7 -11 -3 -12 4 -15 3 -10 -5 5 -8 2 -10 -9 -5 -13 5 -14 7 -3 14 17 11 26
11 33 -1z"/>
<path d="M798 2343 c7 -3 16 -2 19 1 4 3 -2 6 -13 5 -11 0 -14 -3 -6 -6z"/>
<path d="M845 2338 c21 -12 23 -12 28 -1 1 3 -9 8 -23 9 -23 4 -24 3 -5 -8z"/>
<path d="M910 2300 c-8 -5 -12 -12 -9 -15 4 -3 12 1 19 10 14 17 11 19 -10 5z"/>
<path d="M741 2226 c-8 -10 -9 -16 -1 -21 6 -4 9 -1 8 7 -2 7 3 12 10 11 6 -2
12 2 12 7 0 14 -16 12 -29 -4z"/>
<path d="M834 2122 c-9 -5 -8 -10 1 -19 11 -10 13 -9 12 7 -1 11 -1 20 -2 20
0 0 -5 -4 -11 -8z"/>
<path d="M819 2098 c-7 -21 -3 -51 8 -59 7 -6 10 -16 6 -22 -3 -5 -1 -7 5 -3
6 3 14 -3 17 -15 5 -16 9 -18 15 -9 5 7 6 20 2 28 -4 11 -1 13 7 7 10 -6 11
-3 2 14 -14 25 -23 28 -14 4 6 -16 5 -16 -10 -4 -14 11 -15 17 -5 28 6 8 7 13
2 12 -21 -4 -35 2 -29 11 3 6 4 10 1 10 -3 0 -6 -1 -7 -2z m18 -35 c-4 -3 1
-16 10 -27 18 -21 18 -21 -4 -2 -20 16 -23 36 -6 36 4 0 3 -3 0 -7z"/>
<path d="M1015 2090 c-3 -5 -2 -10 4 -10 5 0 13 5 16 10 3 6 2 10 -4 10 -5 0
-13 -4 -16 -10z"/>
<path d="M1038 2048 c9 -9 9 -15 -1 -27 -11 -14 -10 -14 6 -2 13 10 15 17 6
27 -6 8 -14 14 -17 14 -3 0 -1 -5 6 -12z"/>
<path d="M865 1951 c-3 -5 -2 -12 3 -15 5 -3 9 1 9 9 0 17 -3 19 -12 6z"/>
<path d="M974 1832 c4 -3 14 -7 22 -8 9 -1 13 0 10 4 -4 3 -14 7 -22 8 -9 1
-13 0 -10 -4z"/>
<path d="M1026 1723 c-6 -14 -5 -15 5 -6 7 7 10 15 7 18 -3 3 -9 -2 -12 -12z"/>
<path d="M406 2022 c-2 -4 0 -14 6 -22 8 -12 9 -12 5 2 -3 9 -1 19 6 22 9 3 9
5 0 5 -6 1 -14 -3 -17 -7z"/>
<path d="M193 1845 c0 -8 4 -12 9 -9 5 3 6 10 3 15 -9 13 -12 11 -12 -6z"/>
<path d="M295 1851 c-3 -5 -2 -12 3 -15 5 -3 9 1 9 9 0 17 -3 19 -12 6z"/>
<path d="M575 1851 c-3 -5 -2 -12 3 -15 5 -3 9 1 9 9 0 17 -3 19 -12 6z"/>
<path d="M330 1830 c-9 -6 -10 -10 -3 -10 6 0 15 5 18 10 8 12 4 12 -15 0z"/>
<path d="M465 1820 c17 -19 19 -19 31 -2 7 9 10 19 8 22 -3 2 -10 -2 -15 -10
-8 -11 -12 -12 -16 -2 -2 6 -9 12 -15 12 -6 0 -3 -9 7 -20z"/>
<path d="M530 1827 c0 -10 -4 -16 -9 -12 -5 3 -12 1 -15 -4 -4 -5 -2 -12 3
-15 5 -4 12 -2 16 4 4 6 11 8 16 5 12 -8 11 6 -1 25 -8 13 -10 12 -10 -3z"/>
<path d="M555 1830 c5 -8 10 -21 11 -28 4 -22 12 -26 29 -12 18 15 20 33 3 27
-7 -2 -22 3 -32 12 -16 13 -18 13 -11 1z m45 -26 c0 -8 -19 -13 -24 -6 -3 5 1
9 9 9 8 0 15 -2 15 -3z"/>
<path d="M183 1812 c-10 -7 -10 -12 1 -27 8 -11 12 -25 9 -32 -3 -7 -1 -13 4
-13 5 0 10 6 11 13 0 6 2 21 5 32 2 11 2 14 0 8 -7 -21 -26 -14 -20 7 3 11 4
20 4 20 -1 0 -8 -4 -14 -8z"/>
<path d="M700 1790 c0 -5 10 -14 23 -20 20 -10 20 -10 5 3 -10 8 -15 17 -11
20 3 4 1 7 -5 7 -7 0 -12 -4 -12 -10z"/>
</g>
</svg>
